<?xml version="1.0" standalone="no"?>
<!DOCTYPE svg PUBLIC "-//W3C//DTD SVG 20010904//EN"
 "http://www.w3.org/TR/2001/REC-SVG-20010904/DTD/svg10.dtd">
<svg version="1.0" xmlns="http://www.w3.org/2000/svg"
 width="229.000000pt" height="229.000000pt" viewBox="0 0 229.000000 229.000000"
 preserveAspectRatio="xMidYMid meet">
<metadata>
Created by potrace 1.11, written by Peter Selinger 2001-2013
</metadata>
<g transform="translate(0.000000,229.000000) scale(0.100000,-0.100000)"
fill="#000000" stroke="none">
<path d="M246 1901 l-249 -249 438 -588 c241 -324 492 -662 559 -751 88 -120
126 -163 141 -162 14 0 96 101 298 367 152 202 407 538 567 747 159 209 288
384 287 389 -2 4 -113 118 -247 252 l-245 244 -650 0 -650 0 -249 -249z m609
-11 c-82 -82 -152 -150 -156 -150 -3 0 -25 62 -49 138 -23 75 -45 143 -47 150
-4 9 40 12 198 12 l204 0 -150 -150z m833 138 c-3 -7 -24 -71 -48 -143 -23
-71 -45 -133 -49 -137 -4 -4 -74 60 -156 142 l-150 150 204 0 c158 0 202 -3
199 -12z m-383 -168 l150 -150 -310 0 -310 0 150 150 c82 83 154 150 160 150
6 0 78 -67 160 -150z m-725 -142 c0 -5 -82 -8 -182 -8 l-183 0 139 139 139
140 44 -132 c23 -73 43 -135 43 -139z m1355 132 l140 -140 -187 0 -186 0 46
140 c26 77 47 140 47 140 0 0 63 -63 140 -140z m-1286 -332 c13 -40 88 -271
167 -512 79 -242 142 -441 140 -443 -2 -2 -75 92 -162 209 -87 117 -255 344
-374 503 -119 160 -219 296 -223 303 -7 9 38 12 210 12 l219 0 23 -72z m744
-355 c-80 -236 -171 -503 -202 -596 l-56 -168 -57 173 c-214 653 -328 1003
-328 1010 0 4 178 8 395 8 l394 0 -146 -427z m675 382 c-161 -217 -754 -992
-756 -990 -2 2 323 968 343 1018 7 15 27 17 227 17 l220 0 -34 -45z"/>
</g>
</svg>
